# xmcd
#
# Track frame offsets:
# 150
# 11675
# 21715
# 33680
# 42785
# 55690
# 68115
# 78882
# 87505
# 99440
#
# Disc length: 1490 seconds
#
#
# Revision: 1
# Processed by: cddbd v1.5PL3 Copyright (c) Steve Scherf et al.
# Submitted via: FreeRIP 2.53 
#
DISCID=7b05d00a
DTITLE=Porter Wagoner - Heartwarming Songs
DYEAR=1990
DGENRE=Country
TTITLE0=Angel Band
TTITLE1=Baby Linda
TTITLE2=Crumbs From Another Man's Table
TTITLE3=Can You Tell Me
TTITLE4=When The One You Love Says I Love You
TTITLE5=Devil's Alley
TTITLE6=I Can't Be Your Man
TTITLE7=I See You
TTITLE8=I Know I'm Gonna Be Loved Tonight
TTITLE9=He Really Must Have Loved You
EXTD=
EXTT0=
EXTT1=
EXTT2=
EXTT3=
EXTT4=
EXTT5=
EXTT6=
EXTT7=
EXTT8=
EXTT9=
PLAYORDER=
